<?xml version="1.0" standalone="no"?>
<!DOCTYPE svg PUBLIC "-//W3C//DTD SVG 20010904//EN"
 "http://www.w3.org/TR/2001/REC-SVG-20010904/DTD/svg10.dtd">
<svg version="1.0" xmlns="http://www.w3.org/2000/svg"
 width="512.000000pt" height="512.000000pt" viewBox="0 0 512.000000 512.000000"
 preserveAspectRatio="xMidYMid meet">

<g transform="translate(0.000000,512.000000) scale(0.100000,-0.100000)"
fill="#000000" stroke="none">
<path d="M0 2560 l0 -2560 2560 0 2560 0 0 2560 0 2560 -2560 0 -2560 0 0
-2560z m2072 1831 c282 -125 619 -275 748 -333 l235 -104 3 -695 2 -696 300
-147 c165 -81 300 -151 300 -154 0 -4 -6 -16 -13 -27 -8 -11 -22 -32 -31 -47
l-18 -27 122 -61 121 -61 -20 -28 c-39 -55 -129 -128 -208 -168 -105 -55 -211
-78 -322 -70 -140 10 -95 -10 -1074 476 l-688 341 -73 73 c-52 52 -83 94 -109
147 -69 140 -67 118 -67 892 0 417 4 698 9 698 5 0 64 -24 130 -54 l121 -54 0
164 c0 97 4 164 9 164 6 0 241 -103 523 -229z m646 -3057 c35 -17 62 -40 80
-67 26 -39 27 -47 30 -191 4 -180 -4 -212 -65 -265 -53 -47 -111 -64 -201 -59
-85 4 -155 42 -190 103 -21 38 -22 49 -20 212 l3 171 31 38 c74 92 212 116
332 58z m978 1 c59 -29 104 -89 104 -138 0 -26 -2 -27 -62 -27 -57 0 -63 2
-89 33 -24 29 -32 32 -79 31 -45 0 -57 -5 -77 -28 -21 -25 -23 -35 -23 -149 0
-94 4 -128 15 -144 21 -30 75 -44 121 -31 29 8 39 17 52 49 l15 40 61 -3 61
-3 3 -35 c4 -54 -43 -121 -109 -154 -106 -52 -260 -26 -322 56 -38 49 -50 123
-45 263 5 133 16 165 70 210 82 69 200 81 304 30z m-2641 -45 l0 -55 -37 -3
-38 -3 0 -168 0 -168 40 -7 41 -6 -3 -58 -3 -57 -150 0 -150 0 -3 50 c-4 54
12 75 55 75 l23 0 0 170 0 170 -34 0 c-37 0 -46 12 -46 60 0 61 -1 61 159 58
l146 -3 0 -55z m353 -95 c51 -82 97 -154 103 -159 5 -6 9 50 9 152 l0 163 68
-3 67 -3 0 -290 0 -290 -61 -3 c-48 -2 -63 1 -76 15 -8 10 -55 83 -104 163
l-89 145 -5 -160 -5 -160 -66 -3 c-62 -3 -67 -1 -73 20 -8 30 -8 532 0 553 5
13 19 15 73 13 l66 -3 93 -150z m534 -35 c34 -104 65 -190 68 -190 3 0 32 84
65 188 l60 187 73 3 c59 2 72 0 72 -12 0 -22 -188 -547 -201 -563 -7 -8 -35
-13 -76 -13 -63 0 -64 1 -78 33 -23 55 -195 539 -195 548 0 5 33 9 74 9 l75 0
63 -190z m1282 174 c3 -9 6 -28 6 -44 0 -48 -9 -60 -46 -60 l-34 0 0 -174 0
-175 38 -3 37 -3 0 -55 0 -55 -150 0 -150 0 -3 58 -3 57 41 0 40 0 0 174 0
175 -37 3 c-37 3 -38 4 -41 47 -5 73 -9 71 152 71 122 0 145 -2 150 -16z
m1126 -43 c0 -44 -4 -60 -16 -65 -9 -3 -74 -6 -145 -6 l-129 0 0 -45 0 -44
128 -3 127 -3 0 -60 0 -60 -127 -3 -128 -3 0 -54 0 -55 144 0 c165 0 169 -2
164 -77 l-3 -48 -225 0 -225 0 -3 280 c-1 154 0 285 3 292 3 10 55 13 220 13
l215 0 0 -59z"/>
<path d="M1632 4369 l3 -120 580 -258 580 -258 0 -719 0 -719 23 -65 c45 -124
123 -227 223 -291 192 -123 466 -105 634 43 l35 30 -90 44 -90 43 -52 -27
c-46 -23 -65 -27 -148 -27 -85 0 -101 3 -150 28 -72 37 -131 96 -166 165 l-29
57 -3 800 -3 800 -142 62 c-78 35 -371 164 -652 289 -280 124 -520 230 -533
235 l-23 9 3 -121z"/>
<path d="M3060 2416 c0 -117 61 -220 158 -267 63 -31 159 -31 223 0 44 21 107
76 98 85 -2 2 -111 56 -241 119 l-238 116 0 -53z"/>
<path d="M2544 1230 c-45 -18 -54 -46 -54 -175 0 -137 8 -158 66 -174 56 -15
106 5 121 49 15 45 16 207 2 250 -17 48 -82 72 -135 50z"/>
</g>
</svg>
